<svg id="Close" xmlns="http://www.w3.org/2000/svg" width="20" height="20" viewBox="0 0 20 20">
  <g id="Group_79" data-name="Group 79" transform="translate(0 0)">
    <path id="Path_202" data-name="Path 202" d="M18.75,20a1.135,1.135,0,0,1-.875-.375L.375,2.125a1.208,1.208,0,0,1,0-1.75,1.208,1.208,0,0,1,1.75,0l17.5,17.5a1.208,1.208,0,0,1,0,1.75A1.135,1.135,0,0,1,18.75,20Z" transform="translate(0 0)" fill="#131e29"/>
  </g>
  <g id="Group_80" data-name="Group 80" transform="translate(0 0)">
    <path id="Path_203" data-name="Path 203" d="M1.25,20a1.135,1.135,0,0,1-.875-.375,1.208,1.208,0,0,1,0-1.75l17.5-17.5a1.208,1.208,0,0,1,1.75,0,1.208,1.208,0,0,1,0,1.75l-17.5,17.5A1.135,1.135,0,0,1,1.25,20Z" transform="translate(0 0)" fill="#131e29"/>
  </g>
</svg>
