<svg id="Group_1238" data-name="Group 1238" xmlns="http://www.w3.org/2000/svg" width="24.192" height="38.199" viewBox="0 0 24.192 38.199">
  <path id="Path_1325" data-name="Path 1325" d="M115.01,0H97.183A3.187,3.187,0,0,0,94,3.183V35.016A3.187,3.187,0,0,0,97.183,38.2H115.01a3.187,3.187,0,0,0,3.183-3.183V3.183A3.187,3.187,0,0,0,115.01,0ZM95.273,6.366h21.646V31.833H95.273Zm1.91-5.093H115.01a1.91,1.91,0,0,1,1.91,1.91v1.91H95.273V3.183A1.91,1.91,0,0,1,97.183,1.273ZM115.01,36.926H97.183a1.91,1.91,0,0,1-1.91-1.91v-1.91h21.646v1.91A1.91,1.91,0,0,1,115.01,36.926Z" transform="translate(-94)" fill="#0092cb"/>
  <path id="Path_1326" data-name="Path 1326" d="M240.976,460.8H239.7a.637.637,0,1,0,0,1.273h1.273a.637.637,0,0,0,0-1.273Z" transform="translate(-228.243 -426.422)" fill="#0092cb"/>
  <path id="Path_1327" data-name="Path 1327" d="M137.3,35.406h1.273a.637.637,0,1,0,0-1.273H137.3a.637.637,0,0,0,0,1.273Z" transform="translate(-133.485 -31.586)" fill="#0092cb"/>
  <path id="Path_1328" data-name="Path 1328" d="M188.5,35.406h2.547a.637.637,0,1,0,0-1.273H188.5a.637.637,0,0,0,0,1.273Z" transform="translate(-180.864 -31.586)" fill="#0092cb"/>
  <path id="Path_1329" data-name="Path 1329" d="M132.113,136.214H135.5a.847.847,0,0,0,.847-.847V131.98a.847.847,0,0,0-.847-.847h-3.388a.847.847,0,0,0-.847.847v3.388A.847.847,0,0,0,132.113,136.214Zm.847-3.388h1.694v1.694H132.96Z" transform="translate(-128.486 -121.349)" fill="#0092cb"/>
  <path id="Path_1330" data-name="Path 1330" d="M317.127,131.133h-3.388a.847.847,0,0,0-.847.847v3.388a.847.847,0,0,0,.847.847h3.388a.847.847,0,0,0,.847-.847V131.98A.847.847,0,0,0,317.127,131.133Zm-.847,3.388h-1.694v-1.694h1.694Z" transform="translate(-296.561 -121.349)" fill="#0092cb"/>
  <path id="Path_1331" data-name="Path 1331" d="M135.5,312.759h-3.388a.847.847,0,0,0-.847.847v3.388a.847.847,0,0,0,.847.847H135.5a.847.847,0,0,0,.847-.847v-3.388A.847.847,0,0,0,135.5,312.759Zm-.847,3.388H132.96v-1.694h1.694Z" transform="translate(-128.486 -289.425)" fill="#0092cb"/>
  <path id="Path_1332" data-name="Path 1332" d="M222.928,132.827h3.388a.847.847,0,1,0,0-1.694h-3.388a.847.847,0,0,0,0,1.694Z" transform="translate(-212.525 -121.349)" fill="#0092cb"/>
  <path id="Path_1333" data-name="Path 1333" d="M132.113,216.523a.847.847,0,0,0,.847-.847v-1.694h1.694v.847a.847.847,0,0,0,1.694,0v-.847h2.541a.847.847,0,1,0,0-1.694h-1.694v-.847a.847.847,0,0,0-1.694,0v.847H132.96a.847.847,0,1,0-1.694,0v3.388A.847.847,0,0,0,132.113,216.523Z" transform="translate(-128.486 -194.883)" fill="#0092cb"/>
  <path id="Path_1334" data-name="Path 1334" d="M338.136,335.462a.847.847,0,0,0-.847.847v.847h-.847a.847.847,0,0,0,0,1.694h1.694a.847.847,0,0,0,.847-.847v-1.694A.847.847,0,0,0,338.136,335.462Z" transform="translate(-317.57 -310.434)" fill="#0092cb"/>
  <path id="Path_1335" data-name="Path 1335" d="M228.009,295.138h-1.694v-1.694h.847a.847.847,0,0,0,0-1.694h-.847V290.9a.847.847,0,0,0-1.694,0h-.847a.847.847,0,1,0,0,1.694h.847v2.541h-.847v-.847a.847.847,0,0,0-1.694,0v1.694a.847.847,0,0,0,.847.847h5.081a.847.847,0,1,0,0-1.694Z" transform="translate(-212.525 -268.416)" fill="#0092cb"/>
  <path id="Path_1336" data-name="Path 1336" d="M359.144,221.943a.847.847,0,0,0-.847.847v5.081a.847.847,0,1,0,1.694,0V222.79A.847.847,0,0,0,359.144,221.943Z" transform="translate(-338.578 -205.384)" fill="#0092cb"/>
  <path id="Path_1337" data-name="Path 1337" d="M291.036,213.983h.847v.847a.847.847,0,0,0,1.694,0v-1.694a.847.847,0,0,0-.847-.847v-.847a.847.847,0,0,0-1.694,0v.847a.847.847,0,0,0,0,1.694Z" transform="translate(-275.552 -194.883)" fill="#0092cb"/>
  <path id="Path_1338" data-name="Path 1338" d="M222.928,168.577h1.694a.847.847,0,0,0,.847-.847h.847a.847.847,0,1,0,0-1.694h-.847a.847.847,0,0,0-1.694,0v.847h-.847a.847.847,0,0,0,0,1.694Z" transform="translate(-212.525 -152.865)" fill="#0092cb"/>
  <path id="Path_1339" data-name="Path 1339" d="M202.767,279.55a.847.847,0,0,0-.847-.847h-1.694a.847.847,0,0,0,0,1.694h1.694A.847.847,0,0,0,202.767,279.55Z" transform="translate(-191.517 -257.91)" fill="#0092cb"/>
  <path id="Path_1340" data-name="Path 1340" d="M256.133,234.144v1.694a.847.847,0,0,0,1.694,0v-1.694a.847.847,0,1,0-1.694,0Z" transform="translate(-244.037 -215.891)" fill="#0092cb"/>
  <path id="Path_1341" data-name="Path 1341" d="M325.935,303.946v-1.694a.847.847,0,1,0-1.694,0v1.694a.847.847,0,0,0,1.694,0Z" transform="translate(-307.063 -278.918)" fill="#0092cb"/>
  <path id="Path_1342" data-name="Path 1342" d="M281.376,278.7h-1.694a.847.847,0,1,0,0,1.694h1.694a.847.847,0,0,0,0-1.694Z" transform="translate(-265.045 -257.91)" fill="#0092cb"/>
</svg>
