<svg id="Group_2154" data-name="Group 2154" xmlns="http://www.w3.org/2000/svg" width="30" height="30" viewBox="0 0 30 30">
  <g id="Group_1166" data-name="Group 1166">
    <g id="Group_1165" data-name="Group 1165">
      <path id="Path_1307" data-name="Path 1307" d="M192.137,108.15a2.985,2.985,0,0,0,.165.3c.055.082.137.165.192.247a2.474,2.474,0,0,0,.274.247.924.924,0,0,0,.329.165,1.357,1.357,0,0,0,.356.11,1.687,1.687,0,0,0,.357.027,1.563,1.563,0,0,0,.356-.027.982.982,0,0,0,.3-.11h.027a2.044,2.044,0,0,0,.329-.192,1.775,1.775,0,0,0,.247-.219l.027-.027a1.506,1.506,0,0,0,.192-.247.858.858,0,0,0,.137-.274c0-.027,0-.027.027-.055a1.773,1.773,0,0,0,.11-.356,2.332,2.332,0,0,0,0-.713,2.546,2.546,0,0,0-.11-.356,1.556,1.556,0,0,0-.329-.494l-.055-.055a2.4,2.4,0,0,0-.274-.219c-.11-.055-.192-.11-.3-.165a1.546,1.546,0,0,0-.329-.11,1.687,1.687,0,0,0-.356-.027,1.565,1.565,0,0,0-.357.027,1.547,1.547,0,0,0-.329.11H193.1a2.991,2.991,0,0,0-.3.165,2.4,2.4,0,0,0-.274.219,1.772,1.772,0,0,0-.219.247,2.983,2.983,0,0,0-.165.3,1.545,1.545,0,0,0-.11.329,1.686,1.686,0,0,0-.027.356,1.563,1.563,0,0,0,.027.356A2.489,2.489,0,0,0,192.137,108.15Z" transform="translate(-178.837 -98.361)" fill="#66747d"/>
      <path id="Path_1308" data-name="Path 1308" d="M182.536,188.231h-.631v-6.718a.708.708,0,0,0-.713-.713h-2.879a.708.708,0,0,0-.713.713v1.481a.708.708,0,0,0,.713.713h.576v4.552h-.576a.708.708,0,0,0-.713.713v1.481a.708.708,0,0,0,.713.713h4.223a.708.708,0,0,0,.713-.713v-1.481A.732.732,0,0,0,182.536,188.231Z" transform="translate(-165.425 -168.405)" fill="#66747d"/>
      <path id="Path_1309" data-name="Path 1309" d="M15,0A15,15,0,1,0,30,15,15,15,0,0,0,15,0Zm0,28.026A13.026,13.026,0,1,1,28.026,15,13.037,13.037,0,0,1,15,28.026Z" fill="#66747d"/>
    </g>
  </g>
</svg>
