<svg xmlns="http://www.w3.org/2000/svg" width="17.611" height="17.809" viewBox="0 0 17.611 17.809">
  <g id="maximize" transform="translate(0 17.809) rotate(-90)">
    <path id="Path_1470" data-name="Path 1470" d="M9.117,16.208H2.229A2.231,2.231,0,0,1,0,13.98V2.229A2.231,2.231,0,0,1,2.229,0H13.979a2.231,2.231,0,0,1,2.229,2.229V9.117a.608.608,0,1,1-1.216,0V2.229a1.014,1.014,0,0,0-1.013-1.013H2.229A1.014,1.014,0,0,0,1.216,2.229V13.98a1.014,1.014,0,0,0,1.013,1.013H9.117a.608.608,0,0,1,0,1.216Zm0,0" transform="translate(0 0)"/>
    <path id="Path_1471" data-name="Path 1471" d="M5.875,6.483H.608a.608.608,0,0,1,0-1.216h4.66V.608a.608.608,0,1,1,1.216,0V5.876A.608.608,0,0,1,5.875,6.483Zm0,0" transform="translate(11.325 11.128)"/>
    <path id="Path_1472" data-name="Path 1472" d="M9.645,10.532a.6.6,0,0,1-.43-.178L.178,1.038a.608.608,0,0,1,.86-.86l9.038,9.316a.608.608,0,0,1-.43,1.038Zm0,0" transform="translate(7.555 7.079)"/>
  </g>
</svg>
