<svg id="Group_1240" data-name="Group 1240" xmlns="http://www.w3.org/2000/svg" width="27.493" height="33.77" viewBox="0 0 27.493 33.77">
  <g id="Group_1239" data-name="Group 1239">
    <path id="Path_1343" data-name="Path 1343" d="M120.178,298.307c0-.561-.389-.9-1.076-.9a2.383,2.383,0,0,0-.57.054v1.8a2.157,2.157,0,0,0,.461.035C119.726,299.3,120.178,298.931,120.178,298.307Z" transform="translate(-113.369 -276.581)" fill="#0c1c2b"/>
    <path id="Path_1344" data-name="Path 1344" d="M194.428,297.681a2.84,2.84,0,0,0-.624.054v3.985a2.494,2.494,0,0,0,.479.028,1.889,1.889,0,0,0,2.061-2.133A1.748,1.748,0,0,0,194.428,297.681Z" transform="translate(-183.368 -276.831)" fill="#0c1c2b"/>
    <path id="Path_1345" data-name="Path 1345" d="M63.763,0H50.2a3.6,3.6,0,0,0-3.594,3.594V16.885h-.351a1.448,1.448,0,0,0-1.448,1.448v8.783a1.448,1.448,0,0,0,1.448,1.448h.351v1.611A3.6,3.6,0,0,0,50.2,33.77H68.706A3.6,3.6,0,0,0,72.3,30.175V8.506ZM48.606,19.918a11.353,11.353,0,0,1,1.862-.126,2.92,2.92,0,0,1,1.862.488,1.781,1.781,0,0,1,.651,1.41,1.947,1.947,0,0,1-.56,1.446,2.825,2.825,0,0,1-1.979.641,3.567,3.567,0,0,1-.47-.027v2.178H48.606Zm20.1,11.65H50.2a1.394,1.394,0,0,1-1.392-1.393V28.565H66.059a1.448,1.448,0,0,0,1.448-1.448V18.333a1.448,1.448,0,0,0-1.448-1.448H48.808V3.594A1.394,1.394,0,0,1,50.2,2.2l12.74-.013V6.9a2.493,2.493,0,0,0,2.493,2.493l4.613-.013.052,20.8A1.393,1.393,0,0,1,68.706,31.568ZM53.859,25.9V19.918a12.405,12.405,0,0,1,1.862-.126,3.922,3.922,0,0,1,2.495.65,2.7,2.7,0,0,1,1.03,2.3,3.088,3.088,0,0,1-1.012,2.467,4.372,4.372,0,0,1-2.81.786A11.924,11.924,0,0,1,53.859,25.9Zm9.864-3.542v1.12H61.536v2.45H60.153V19.838h3.723v1.129H61.536v1.392Z" transform="translate(-44.806)" fill="#0c1c2b"/>
  </g>
</svg>
