<svg id="Group_1242" data-name="Group 1242" xmlns="http://www.w3.org/2000/svg" width="28.054" height="24.679" viewBox="0 0 28.054 24.679">
  <g id="Group_1241" data-name="Group 1241">
    <path id="Path_1346" data-name="Path 1346" d="M62.269,146.987v2.181h22.17v-2.181a.9.9,0,0,0-.9-.9H63.169A.9.9,0,0,0,62.269,146.987Z" transform="translate(-58.022 -137.811)" fill="none"/>
    <path id="Path_1347" data-name="Path 1347" d="M46.677,53.745l-1-4.288,0-.009a.9.9,0,0,0-1.073-.683L24.711,53.179a.9.9,0,0,0-.683,1.073l.951,4.325v-2.3a2.539,2.539,0,0,1,2.537-2.536H46.677Z" transform="translate(-22.369 -47.106)" fill="none"/>
    <path id="Path_1348" data-name="Path 1348" d="M62.269,268.861v3.152a.9.9,0,0,0,.9.9h20.37a.9.9,0,0,0,.9-.9v-5.665H62.269Z" transform="translate(-58.022 -249.871)" fill="none"/>
    <path id="Path_1350" data-name="Path 1350" d="M0,0H22.17V1.847H0Z" transform="translate(4.247 12.993)" fill="#0c1c2b"/>
    <path id="Path_1349" data-name="Path 1349" d="M26,31.425l-1.1-4.7A2.54,2.54,0,0,0,21.874,24.8L1.988,29.215A2.539,2.539,0,0,0,.061,32.239L2.61,43.831v3.051a2.539,2.539,0,0,0,2.537,2.536h20.37a2.539,2.539,0,0,0,2.537-2.536V33.915A2.541,2.541,0,0,0,26,31.425Zm-.484,1.59a.9.9,0,0,1,.9.9V36.1H4.247V33.915a.9.9,0,0,1,.9-.9Zm.9,6.565H4.247V37.733h22.17ZM2.61,33.915v2.3l-.951-4.325a.9.9,0,0,1,.683-1.073L22.228,26.4a.9.9,0,0,1,1.073.683l0,.009,1,4.288H5.147A2.539,2.539,0,0,0,2.61,33.915ZM26.417,46.881a.9.9,0,0,1-.9.9H5.147a.9.9,0,0,1-.9-.9V41.216h22.17Z" transform="translate(0 -24.739)" fill="#0c1c2b"/>
  </g>
</svg>
