<svg id="Group_2048" data-name="Group 2048" xmlns="http://www.w3.org/2000/svg" width="25.012" height="25.012" viewBox="0 0 25.012 25.012">
  <g id="Rectangle_2082" data-name="Rectangle 2082" fill="#fff" stroke="#66747d" stroke-width="1">
    <rect width="25.012" height="25.012" rx="4" stroke="none"/>
    <rect x="0.5" y="0.5" width="24.012" height="24.012" rx="3.5" fill="none"/>
  </g>
  <g id="Group_733" data-name="Group 733" transform="translate(7.504 5.836)">
    <path id="Path_1096" data-name="Path 1096" d="M74.491,108.916a.671.671,0,0,0,.671.643h6.267a.671.671,0,0,0,.671-.643l.448-9.448h-8.5Zm5.222-7.1a.273.273,0,0,1,.273-.273h.436a.273.273,0,0,1,.273.273v5.4a.273.273,0,0,1-.273.273h-.436a.273.273,0,0,1-.273-.273Zm-1.908,0a.273.273,0,0,1,.273-.273h.436a.273.273,0,0,1,.273.273v5.4a.273.273,0,0,1-.273.273h-.436a.273.273,0,0,1-.273-.273v-5.4Zm-1.908,0a.273.273,0,0,1,.273-.273H76.6a.273.273,0,0,1,.273.273v5.4a.273.273,0,0,1-.273.273h-.436a.273.273,0,0,1-.273-.273Z" transform="translate(-73.324 -96.22)" fill="#66747d"/>
    <path id="Path_1097" data-name="Path 1097" d="M61.537.687H58.646V.141A.141.141,0,0,0,58.505,0H55.469a.141.141,0,0,0-.141.141V.687H52.437a.421.421,0,0,0-.421.421V2.432h9.942V1.108A.421.421,0,0,0,61.537.687Z" transform="translate(-52.016)" fill="#66747d"/>
  </g>
</svg>
