<svg xmlns="http://www.w3.org/2000/svg" width="66.667" height="40" viewBox="0 0 66.667 40">
  <g id="Group_1912" data-name="Group 1912" transform="translate(-86 -274)">
    <g id="Rectangle_1678" data-name="Rectangle 1678" transform="translate(86 274)" fill="#fff" stroke="#e3e9ed" stroke-width="1">
      <rect width="66.667" height="40" stroke="none"/>
      <rect x="0.5" y="0.5" width="65.667" height="39" fill="none"/>
    </g>
    <g id="Group_1104" data-name="Group 1104" transform="translate(94.52 285.505)">
      <path id="Path_1204" data-name="Path 1204" d="M184.8,195.992l2.772-15.592H191.9l-2.685,15.592Z" transform="translate(-166.617 -179.88)" fill="#3c58bf"/>
      <path id="Path_1205" data-name="Path 1205" d="M184.8,195.992l3.551-15.592H191.9l-2.685,15.592Z" transform="translate(-166.617 -179.88)" fill="#293688"/>
      <path id="Path_1206" data-name="Path 1206" d="M261.253,176.293a10.987,10.987,0,0,0-3.985-.693c-4.331,0-7.449,2.166-7.449,5.284,0,2.339,2.165,3.551,3.9,4.331s2.252,1.3,2.252,1.992c0,1.039-1.386,1.559-2.6,1.559a9.415,9.415,0,0,1-4.158-.866l-.606-.26L248,191.192a14.046,14.046,0,0,0,4.937.866c4.591,0,7.623-2.166,7.623-5.457,0-1.819-1.126-3.205-3.725-4.331-1.559-.78-2.512-1.213-2.512-1.992,0-.693.78-1.386,2.512-1.386a7.945,7.945,0,0,1,3.292.606l.433.173.693-3.378Z" transform="translate(-223.964 -175.6)" fill="#3c58bf"/>
      <path id="Path_1207" data-name="Path 1207" d="M261.253,176.293a10.987,10.987,0,0,0-3.985-.693c-4.331,0-6.67,2.166-6.67,5.284,0,2.339,1.386,3.551,3.118,4.331s2.252,1.3,2.252,1.992c0,1.039-1.386,1.559-2.6,1.559a9.415,9.415,0,0,1-4.158-.866l-.606-.26L248,191.192a14.046,14.046,0,0,0,4.937.866c4.591,0,7.623-2.166,7.623-5.457,0-1.819-1.126-3.205-3.725-4.331-1.559-.78-2.512-1.213-2.512-1.992,0-.693.78-1.386,2.512-1.386a7.945,7.945,0,0,1,3.292.606l.433.173.693-3.378Z" transform="translate(-223.964 -175.6)" fill="#293688"/>
      <path id="Path_1208" data-name="Path 1208" d="M367.149,180.4c-1.039,0-1.819.087-2.252,1.126l-6.5,14.466h4.678l.866-2.6h5.544l.52,2.6h4.158L370.527,180.4Zm-1.992,10.395c.26-.78,1.732-4.591,1.732-4.591s.346-.953.606-1.559l.26,1.473s.866,3.9,1.039,4.764h-3.638Z" transform="translate(-323.927 -179.88)" fill="#3c58bf"/>
      <path id="Path_1209" data-name="Path 1209" d="M368.188,180.4c-1.039,0-1.819.087-2.252,1.126L358.4,195.992h4.678l.866-2.6h5.544l.52,2.6h4.158L370.527,180.4Zm-3.032,10.395c.347-.866,1.732-4.591,1.732-4.591s.346-.953.606-1.559l.26,1.473s.866,3.9,1.039,4.764h-3.638Z" transform="translate(-323.927 -179.88)" fill="#293688"/>
      <path id="Path_1210" data-name="Path 1210" d="M57.7,192.028l-.433-2.252a12.557,12.557,0,0,0-6.063-6.843l3.9,13.859h4.678L66.792,181.2H62.114Z" transform="translate(-45.656 -180.594)" fill="#3c58bf"/>
      <path id="Path_1211" data-name="Path 1211" d="M57.7,192.028l-.433-2.252a12.557,12.557,0,0,0-6.063-6.843l3.9,13.859h4.678L66.792,181.2H62.98Z" transform="translate(-45.656 -180.594)" fill="#293688"/>
      <path id="Path_1212" data-name="Path 1212" d="M0,180.4l.78.173c5.544,1.3,9.355,4.591,10.828,8.489L10.048,181.7c-.26-1.039-1.039-1.3-1.992-1.3Z" transform="translate(0 -179.88)" fill="#ffbc00"/>
      <path id="Path_1213" data-name="Path 1213" d="M0,180.4H0c5.544,1.3,10.135,4.678,11.607,8.575l-1.473-6.15a2.114,2.114,0,0,0-2.079-1.646Z" transform="translate(0 -179.88)" fill="#f7981d"/>
      <path id="Path_1214" data-name="Path 1214" d="M0,180.4H0c5.544,1.3,10.135,4.678,11.607,8.575L10.568,185.6a3.055,3.055,0,0,0-1.819-2.512Z" transform="translate(0 -179.88)" fill="#ed7c00"/>
      <g id="Group_1103" data-name="Group 1103" transform="translate(5.63 2.252)">
        <path id="Path_1215" data-name="Path 1215" d="M62.741,205.062,59.8,202.117l-1.386,3.292-.346-2.166A12.557,12.557,0,0,0,52,196.4l3.9,13.859h4.678Z" transform="translate(-52 -196.4)" fill="#051244"/>
        <path id="Path_1216" data-name="Path 1216" d="M189.218,293.011l-3.725-3.811-.693,3.811Z" transform="translate(-171.82 -279.152)" fill="#051244"/>
        <path id="Path_1217" data-name="Path 1217" d="M255.536,274.8h0c.346.346.52.606.433.953,0,1.039-1.386,1.559-2.6,1.559a9.414,9.414,0,0,1-4.158-.866l-.606-.26L248,279.737a14.043,14.043,0,0,0,4.937.866c2.772,0,5.024-.78,6.323-2.165Z" transform="translate(-229.219 -266.311)" fill="#051244"/>
        <path id="Path_1218" data-name="Path 1218" d="M364,230.947h4.071l.866-2.6h5.544l.52,2.6h4.158l-1.472-6.323-5.2-5.024.26,1.386s.866,3.9,1.039,4.764H370.15c.346-.866,1.732-4.591,1.732-4.591s.346-.953.606-1.559" transform="translate(-334.551 -217.088)" fill="#051244"/>
      </g>
    </g>
  </g>
</svg>
